<svg width="75" height="75" viewBox="0 0 74 59" fill="none" xmlns="http://www.w3.org/2000/svg">
<path d="M33.216 47L25.488 35.96C30.048 34.184 32.64 30.44 32.64 25.352C32.64 17.912 27.168 13.4 18.336 13.4H4.512V47H10.752V37.208H18.336C18.768 37.208 19.2 37.208 19.632 37.16L26.496 47H33.216ZM26.352 25.352C26.352 29.576 23.52 32.072 18.048 32.072H10.752V18.68H18.048C23.52 18.68 26.352 21.128 26.352 25.352Z" fill="#0466C8"/>
<path d="M46.544 18.72C48.704 17.472 51.056 16.992 53.456 16.992C60.56 16.992 65.6 21.984 65.6 28.8C65.6 35.76 60.56 40.608 53.408 40.608C49.808 40.608 46.784 39.408 44.144 36.768L40.208 40.608C43.376 44.208 48.08 46.08 53.696 46.08C64.208 46.08 71.888 38.832 71.888 28.8C71.888 18.768 64.208 11.52 53.792 11.52C49.04 11.52 44.144 12.96 40.64 15.792L40.64 29.184L46.544 29.184V18.72Z" fill="#0466C8"/>
</svg>
