<svg width="99" height="80" viewBox="0 0 99 80" fill="none" xmlns="http://www.w3.org/2000/svg">
<rect width="99" height="80" rx="15" fill="white"/>
<path d="M37.6022 41.616C39.1382 39.456 39.8582 37.056 39.8582 34.368C39.8582 30.864 38.6102 27.888 36.1142 25.344C33.6182 22.848 30.5942 21.6 27.0902 21.6H10.2422L13.5542 27.312L14.2742 28.032H27.0902C28.8182 28.032 30.3062 28.656 31.5542 29.904C32.8502 31.152 33.4742 32.64 33.4742 34.368C33.4742 36.144 32.8502 37.68 31.5542 38.928C30.3062 40.176 28.8182 40.8 27.0902 40.8L21.3782 40.752L32.5142 60H39.8582L31.9862 46.224C34.2422 45.312 36.1142 43.776 37.6022 41.616ZM71.2858 52.464C69.6538 53.184 67.8778 53.568 65.9578 53.568C62.4538 53.568 59.3818 52.368 56.8858 49.872C54.3898 47.376 53.1898 44.304 53.1898 40.8C53.1898 37.296 54.3898 34.272 56.8858 31.776C59.4298 29.232 62.4538 28.032 65.9578 28.032C69.5098 28.032 72.4858 29.28 74.9818 31.776L79.5898 27.264C77.8138 25.488 75.7498 24.096 73.4458 23.088C71.0938 22.08 68.5978 21.6 65.9578 21.6C60.6298 21.6 56.1178 23.472 52.4218 27.264C48.6298 31.008 46.7578 35.52 46.7578 40.8C46.7578 46.128 48.6778 50.592 52.4218 54.336C56.1658 58.08 60.6298 60 65.9578 60C67.6378 60 69.2218 59.808 70.7578 59.376C72.3418 58.992 73.7818 58.416 75.1258 57.648C76.5178 56.88 77.7658 55.968 78.9178 54.912C80.1178 53.856 81.1258 52.656 81.9898 51.36L75.6058 49.248C74.3578 50.64 72.9178 51.696 71.2858 52.464ZM65.9578 44.016H75.6058L81.9898 37.632H65.9578V44.016Z" fill="url(#paint0_linear_455_3)"/>
<defs>
<linearGradient id="paint0_linear_455_3" x1="10" y1="10" x2="98.072" y2="29.9496" gradientUnits="userSpaceOnUse">
<stop stop-color="#0466C8"/>
<stop offset="1" stop-color="#9D4EDD"/>
</linearGradient>
</defs>
</svg>
